<svg width="46" height="46" viewBox="0 0 46 46" version="1.1" xmlns="http://www.w3.org/2000/svg" xmlns:xlink="http://www.w3.org/1999/xlink">
    <title>Vector</title>
    <desc>Created using Figma</desc>
    <g id="Canvas" transform="translate(-1009 369)">
        <g id="Vector">
            <use xlink:href="#path0_fill" transform="translate(1009 -369)" fill="#D6A60F"/>
        </g>
    </g>
    <defs>
        <path id="path0_fill" fill-rule="evenodd" d="M 45.4346 -6.09292e-08L 1.2036e-07 -6.09292e-08L 1.2036e-07 46L 45.4346 46L 45.4346 -6.09292e-08ZM 25.4938 17.8889L 28.3966 17.8889L 28.3966 22.3611L 25.4938 22.3611L 25.4938 33.9889L 19.4359 33.9889L 19.4359 22.3611L 17.1642 22.3611L 17.1642 17.8889L 19.4359 17.8889L 19.4359 17.1222C 19.4359 16.4833 19.5621 15.7167 19.6883 14.95C 19.8145 14.1833 20.0669 13.5444 20.4456 13.0333C 20.8242 12.5222 21.329 12.1389 22.0862 11.8833C 22.7173 11.6278 23.8531 11.3722 25.1152 11.3722C 26.1249 11.3722 27.7656 11.5 29.7849 11.7556L 29.1538 15.4611C 28.3966 15.3333 27.8918 15.3333 27.3869 15.3333C 26.8821 15.3333 26.5035 15.4611 26.2511 15.5889C 25.9987 15.7167 25.8725 16.1 25.7463 16.4833C 25.62 16.7389 25.4938 17.1222 25.4938 17.8889Z"/>
    </defs>
</svg>
