<svg width="157" height="164" viewBox="0 0 157 164" version="1.1" xmlns="http://www.w3.org/2000/svg" xmlns:xlink="http://www.w3.org/1999/xlink">
	<title>svg</title>
	<desc>Created using Figma</desc>
	<g id="Canvas" transform="translate(667 375)">
		<g id="svg">
			<g id="XMLID 138">
				<use xlink:href="#path0_fill" transform="translate(-655.181 -330.022)" fill="#E89D24"/>
			</g>
			<g id="XMLID 135">
				<use xlink:href="#path1_fill" transform="translate(-667 -375)" fill="#11100F"/>
			</g>
			<g id="XMLID 134">
				<use xlink:href="#path2_fill" transform="translate(-597.74 -349.695)" fill="#E89D24"/>
			</g>
			<g id="XMLID 131">
				<use xlink:href="#path3_fill" transform="translate(-609.584 -375)" fill="#11100F"/>
			</g>
			<g id="XMLID 130">
				<use xlink:href="#path4_fill" transform="translate(-542.816 -305.824)" fill="#E89D24"/>
			</g>
			<g id="XMLID 113">
				<use xlink:href="#path5_fill" transform="translate(-551.748 -375)" fill="#11100F"/>
			</g>
		</g>
	</g>
	<defs>
		<path id="path0_fill" d="M -3.01195e-06 -1.50094e-06L -3.01195e-06 37.0101L -3.01195e-06 74.0447L 31.1878 37.0101L -3.01195e-06 -1.50094e-06Z"/>
		<path id="path1_fill" d="M 23.2428 40.9939L 57.4655 0L 43.0066 0L 11.8435 37.133L 11.8435 0L -1.50598e-06 0L -1.50598e-06 81.9877L -1.50598e-06 163.975L 11.8435 163.975L 11.8435 126.842L 43.0066 163.975L 57.4655 163.975L 23.2428 122.982L 57.4655 81.9877L 23.2428 40.9939ZM 11.8188 81.9877L 11.8188 44.9777L 42.9819 81.9877L 11.8188 119.022L 11.8188 81.9877Z"/>
		<path id="path2_fill" d="M -6.0239e-06 56.6832L -6.0239e-06 113.391L 39.0094 56.6832L -6.0239e-06 -1.50094e-06L -6.0239e-06 56.6832Z"/>
		<path id="path3_fill" d="M 46.9051 0L 46.9051 56.6832L 7.89564 0L -6.0239e-06 0L -6.0239e-06 81.9877L -6.0239e-06 163.975L 7.89564 163.975L 46.9051 107.268L 46.9051 163.975L 58.7486 163.975L 58.7486 81.9877L 58.7486 0L 46.9051 0ZM 11.8435 81.9877L 11.8435 25.3045L 50.8529 82.0123L 11.8435 138.695L 11.8435 81.9877Z"/>
		<path id="path4_fill" d="M 11.9422 -3.00188e-06C 5.35423 -3.00188e-06 3.01195e-06 5.33634 3.01195e-06 11.9022C 3.01195e-06 18.4681 5.35423 23.8045 11.9422 23.8045C 18.5301 23.8045 23.8843 18.4681 23.8843 11.9022C 23.8843 5.33634 18.5301 -3.00188e-06 11.9422 -3.00188e-06Z"/>
		<path id="path5_fill" d="M 26.9192 61.1588L 26.9192 0L 14.5823 0L 14.5823 61.2326C 6.14379 63.8884 0 71.7823 0 81.0778C 0 90.3734 6.14379 98.2426 14.5823 100.923L 14.5823 164L 26.9192 164L 26.9192 100.972C 35.4811 98.3902 41.7482 90.4471 41.7482 81.0532C 41.7482 71.6839 35.5057 63.7409 26.9192 61.1588ZM 26.9192 91.3078C 25.1427 92.3653 23.0701 92.98 20.8741 92.98C 18.5548 92.98 16.4081 92.3161 14.5823 91.1849C 11.2019 89.0946 8.93195 85.3567 8.93195 81.0778C 8.93195 76.8235 11.2019 73.0856 14.5823 70.9708C 16.4081 69.8396 18.5548 69.1756 20.8741 69.1756C 23.0948 69.1756 25.1427 69.7904 26.9192 70.8478C 30.4476 72.9135 32.8163 76.7251 32.8163 81.0778C 32.8163 85.4305 30.4476 89.2422 26.9192 91.3078Z"/>
	</defs>
</svg>
