<?xml version="1.0" encoding="utf-8"?>
<!-- Generator: Adobe Illustrator 19.0.0, SVG Export Plug-In . SVG Version: 6.00 Build 0)  -->
<svg version="1.1" id="Layer_1" xmlns="http://www.w3.org/2000/svg" xmlns:xlink="http://www.w3.org/1999/xlink" x="0px" y="0px"
	 viewBox="0 0 1200 1200" style="enable-background:new 0 0 1200 1200;" xml:space="preserve">
<style type="text/css">
	.st0{fill:#E89D24;}
	.st1{fill:#11100F;}
	.st2{fill:none;}
</style>
<polygon id="XMLID_138_" class="st0" points="351.8,376.4 351.8,526.9 351.8,677.5 478.2,526.9 "/>
<path id="XMLID_135_" class="st1" d="M398.1,360.2l138.7-166.7h-58.6l-126.3,151v-151h-48v333.4v333.4h48v-151l126.3,151h58.6
	L398.1,693.6l138.7-166.7L398.1,360.2z M351.8,526.9V376.4l126.3,150.5L351.8,677.5V526.9z"/>
<polygon id="XMLID_134_" class="st0" points="584.6,526.9 584.6,757.5 742.7,526.9 584.6,296.4 "/>
<path id="XMLID_131_" class="st1" d="M726.7,193.5V424L568.6,193.5h-32v333.4v333.4h32l158.1-230.6v230.6h48V526.9V193.5H726.7z
	 M584.6,526.9V296.4l158.1,230.6L584.6,757.5V526.9z"/>
<path id="XMLID_130_" class="st0" d="M855.6,474.8c-26.7,0-48.4,21.7-48.4,48.4s21.7,48.4,48.4,48.4c26.7,0,48.4-21.7,48.4-48.4
	S882.3,474.8,855.6,474.8z"/>
<path id="XMLID_129_" class="st2" d="M880.1,564.8c14.3-8.4,23.9-23.9,23.9-41.6c0-17.7-9.6-33.2-23.9-41.6v45.4V564.8z"/>
<path id="XMLID_128_" class="st2" d="M830.1,482.1c-13.7,8.5-22.9,23.7-22.9,41.1c0,17.3,9.2,32.5,22.9,41.1v-37.3V482.1z"/>
<path id="XMLID_127_" class="st1" d="M880.1,442.2V193.5h-50v249c8-2.5,16.6-3.9,25.5-3.9C864.1,438.5,872.4,439.8,880.1,442.2z"/>
<path id="XMLID_126_" class="st1" d="M830.1,603.9v256.5h50V604.1c-7.8,2.4-16,3.7-24.5,3.7C846.7,607.8,838.2,606.4,830.1,603.9z"
	/>
<path id="XMLID_123_" class="st1" d="M880.1,442.2c-7.8-2.4-16-3.7-24.5-3.7c-8.9,0-17.4,1.4-25.5,3.9
	c-34.2,10.8-59.1,42.9-59.1,80.7s24.9,69.8,59.1,80.7c8,2.5,16.6,3.9,25.5,3.9c8.5,0,16.8-1.3,24.5-3.7c34.7-10.5,60.1-42.8,60.1-81
	S914.9,452.7,880.1,442.2z M880.1,564.8c-7.2,4.3-15.6,6.8-24.5,6.8c-9.4,0-18.1-2.7-25.5-7.3c-13.7-8.5-22.9-23.7-22.9-41.1
	c0-17.3,9.2-32.5,22.9-41.1c7.4-4.6,16.1-7.3,25.5-7.3c9,0,17.3,2.5,24.5,6.8c14.3,8.4,23.9,23.9,23.9,41.6
	C904,540.9,894.4,556.4,880.1,564.8z"/>
<g id="XMLID_121_">
	<path id="XMLID_93_" class="st1" d="M399.4,970.8c0,20.7-5.6,36.6-16.9,47.6s-27.5,16.5-48.6,16.5h-34.8V909.2h38.5
		c19.5,0,34.7,5.4,45.5,16.2S399.4,951.4,399.4,970.8z M383.9,971.4c0-16.4-4.1-28.7-12.3-37c-8.2-8.3-20.4-12.5-36.7-12.5h-21.2
		v100.4h17.8c17.4,0,30.5-4.3,39.3-12.8C379.5,1000.8,383.9,988.1,383.9,971.4z"/>
	<path id="XMLID_96_" class="st1" d="M489.2,1034.9h-70V909.2h70v13h-55.4v40.5h52.1v12.9h-52.1v46.2h55.4V1034.9z"/>
	<path id="XMLID_98_" class="st1" d="M590.2,1001.4c0,11.1-4,19.7-12,25.9c-8,6.2-18.9,9.3-32.7,9.3c-14.9,0-26.4-1.9-34.4-5.8
		v-14.1c5.2,2.2,10.8,3.9,16.8,5.2c6.1,1.3,12.1,1.9,18,1.9c9.7,0,17.1-1.8,22-5.5c4.9-3.7,7.4-8.8,7.4-15.4c0-4.4-0.9-7.9-2.6-10.7
		c-1.7-2.8-4.7-5.3-8.8-7.7c-4.1-2.3-10.3-5-18.7-8c-11.7-4.2-20-9.1-25-14.9c-5-5.7-7.5-13.2-7.5-22.4c0-9.7,3.6-17.4,10.9-23.1
		c7.3-5.7,16.9-8.6,28.9-8.6c12.5,0,24,2.3,34.5,6.9l-4.6,12.7c-10.4-4.4-20.5-6.5-30.2-6.5c-7.7,0-13.8,1.7-18.1,5
		c-4.4,3.3-6.5,7.9-6.5,13.8c0,4.4,0.8,7.9,2.4,10.7c1.6,2.8,4.3,5.3,8.1,7.6c3.8,2.3,9.6,4.9,17.5,7.7c13.2,4.7,22.2,9.7,27.2,15.1
		C587.7,985.9,590.2,992.8,590.2,1001.4z"/>
	<path id="XMLID_100_" class="st1" d="M614.7,1034.9V909.2h14.6v125.6H614.7z"/>
	<path id="XMLID_102_" class="st1" d="M714.2,969h42.7v61.1c-6.6,2.1-13.4,3.7-20.3,4.8c-6.9,1.1-14.8,1.6-23.9,1.6
		c-19,0-33.8-5.7-44.4-17c-10.6-11.3-15.9-27.2-15.9-47.6c0-13.1,2.6-24.5,7.9-34.3c5.2-9.8,12.8-17.3,22.6-22.5
		c9.9-5.2,21.4-7.8,34.6-7.8c13.4,0,25.9,2.5,37.5,7.4l-5.7,12.9c-11.3-4.8-22.3-7.2-32.7-7.2c-15.3,0-27.2,4.6-35.8,13.7
		c-8.6,9.1-12.9,21.7-12.9,37.9c0,17,4.1,29.8,12.4,38.6c8.3,8.8,20.4,13.1,36.5,13.1c8.7,0,17.2-1,25.5-3v-38.7h-28.1V969z"/>
	<path id="XMLID_104_" class="st1" d="M880.5,1034.9h-16.7l-68.7-105.4h-0.7c0.9,12.4,1.4,23.7,1.4,34v71.4h-13.5V909.2h16.5
		l68.5,105h0.7c-0.1-1.5-0.4-6.5-0.8-14.9c-0.4-8.4-0.5-14.4-0.4-18v-72.1h13.7V1034.9z"/>
</g>
</svg>
